#!OML:ASF X:\für Bonn\!DataBase\2005_08_12_Daniel\c3d\Daniel.ASF
:FULLY-SPECIFIED
:DEGREES
47
root 1.18381 17.0723 0.276163 740.13 -92.2362 -750.837
lowerback 16.9803 -2.32801 0.653362
upperback 0.844863 -3.40407 -3.62986
thorax -8.89561 -1.79566 -3.45988
lowerneck 37.7729 1.51514 6.62801
upperneck 18.2851 1.53313 -2.13013
head 0.718774 0.093345 -1.92999
rclavicle -3.70236e-015 -1.74931e-014
rhumerus -124.681 217.017 171.829
rradius 28.2203
rwrist 336.997
rhand -32.6886 4.398
rfingers 7.12502
rthumb -5.91355 -25.4995
lclavicle -3.70236e-015 -1.74931e-014
lhumerus 56.8931 42.2194 5.93669
lradius 38.04
lwrist 30.693
lhand -20.3592 2.3528
lfingers 7.12502
lthumb 5.99299 32.248
rfemur 10.177 15.0428 13.0501
rtibia 19.2239
rfoot -24.8685 -19.0074
rtoes -12.7092
lfemur 1.54311 -14.9297 -17.727
ltibia 33.9862
lfoot -27.8022 6.27406
ltoes -0.163455
48
root 1.15603 17.0826 0.273001 741.67 -92.2438 -752.15
lowerback 16.7718 -2.34642 0.624552
upperback 0.770837 -3.43405 -3.65959
thorax -8.86249 -1.80949 -3.47353
lowerneck 39.2504 1.62525 6.36658
upperneck 17.5548 1.62224 -1.96834
head 0.365618 0.0956769 -1.84277
rclavicle 2.11954e-014 3.65764e-014
rhumerus -127.504 219.216 173.986
rradius 27.424
rwrist 334.322
rhand -32.6376 4.22317
rfingers 7.12502
rthumb -5.86438 -25.6757
lclavicle 2.11954e-014 3.65764e-014
lhumerus 55.8393 45.3245 6.10627
lradius 37.3355
lwrist 30.8189
lhand -20.9504 2.9256
lfingers 7.12502
lthumb 5.42222 32.8362
rfemur 10.0953 15.1137 12.9914
rtibia 19.1356
rfoot -24.9442 -19.0286
rtoes -12.6661
lfemur 1.44435 -15.0458 -17.7496
ltibia 33.8787
lfoot -27.7386 6.28512
ltoes -0.121721
49
root 1.12765 17.0931 0.269469 743.837 -92.2336 -754.101
lowerback 16.5419 -2.37289 0.581206
upperback 0.727028 -3.47629 -3.68433
thorax -8.78378 -1.8283 -3.47132
lowerneck 40.5256 1.77116 6.04903
upperneck 16.8853 1.72402 -1.81759
head 0.0502956 0.104435 -1.75204
rclavicle 1.64743e-014 -2.38542e-015
rhumerus -130.415 221.352 175.958
rradius 26.7707
rwrist 331.332
rhand -33.0153 3.93782
rfingers 7.12502
rthumb -6.22903 -25.9506
lclavicle 1.64743e-014 -2.38542e-015
lhumerus 54.879 48.4641 6.5626
lradius 36.7047
lwrist 31.0319
lhand -22.0516 3.61633
lfingers 7.12502
lthumb 4.35898 33.5515
rfemur 10.0415 15.1902 12.9328
rtibia 19.0422
rfoot -25.0106 -19.0775
rtoes -12.6257
lfemur 1.35489 -15.1665 -17.7771
ltibia 33.7745
lfoot -27.6494 6.229
ltoes 0.121051
50
root 1.09858 17.1073 0.265558 746.122 -92.2251 -756.025
lowerback 16.1425 -2.39184 0.555235
upperback 0.652637 -3.50209 -3.70932
thorax -8.64308 -1.83954 -3.48813
lowerneck 41.679 1.96828 5.66445
upperneck 16.2823 1.84616 -1.58487
head -0.232694 0.115553 -1.62566
rclavicle 2.75814e-014 3.02153e-014
rhumerus -133.527 223.51 177.499
rradius 26.7139
rwrist 328.511
rhand -34.0123 3.2456
rfingers 7.12502
rthumb -7.19143 -26.6122
lclavicle 2.75814e-014 3.02153e-014
lhumerus 53.9018 51.5436 6.97495
lradius 35.9955
lwrist 31.2874
lhand -23.6727 4.30449
lfingers 7.12502
lthumb 2.79345 34.2659
rfemur 9.82962 15.2572 12.8375
rtibia 18.9484
rfoot -25.0543 -19.1672
rtoes -12.6556
lfemur 1.1101 -15.3195 -17.7796
ltibia 33.6683
lfoot -27.5827 6.23835
ltoes 0.185825
51
root 1.06949 17.1224 0.26087 747.935 -92.1874 -757.382
lowerback 15.6097 -2.42186 0.554377
upperback 0.579098 -3.5319 -3.70483
thorax -8.42579 -1.85229 -3.49058
lowerneck 42.5883 2.19948 5.2309
upperneck 15.7761 1.97697 -1.35507
head -0.466341 0.131654 -1.4937
rclavicle 1.70209e-014 3.97569e-014
rhumerus -136.976 225.589 179.001
rradius 27.244
rwrist 325.676
rhand -35.8544 2.24618
rfingers 7.12502
rthumb -8.96931 -27.5432
lclavicle 1.70209e-014 3.97569e-014
lhumerus 53.1457 54.6592 7.61571
lradius 35.0045
lwrist 31.1093
lhand -25.5732 4.92526
lfingers 7.12502
lthumb 0.958 34.9028
rfemur 9.52645 15.3762 12.7875
rtibia 18.8593
rfoot -25.1657 -19.2816
rtoes -12.5752
lfemur 0.745511 -15.4639 -17.6931
ltibia 33.5638
lfoot -27.5002 6.18521
ltoes 0.31843
52
root 1.03806 17.1369 0.25683 750.539 -92.1394 -759.599
lowerback 15.1211 -2.46409 0.55757
upperback 0.540963 -3.58005 -3.7194
thorax -8.19736 -1.87483 -3.51141
lowerneck 43.3185 2.4855 4.74775
upperneck 15.3309 2.14422 -1.06527
head -0.66759 0.161591 -1.33759
rclavicle -9.19379e-016 3.73715e-014
rhumerus -141.102 227.258 181.087
rradius 28.0063
rwrist 322.705
rhand -38.563 1.15804
rfingers 7.12502
rthumb -11.5823 -28.5019
lclavicle -9.19379e-016 3.73715e-014
lhumerus 52.6878 57.8252 8.52667
lradius 33.6633
lwrist 30.2286
lhand -27.7718 5.35242
lfingers 7.12502
lthumb -1.16548 35.329
rfemur 9.31675 15.4953 12.7379
rtibia 18.7691
rfoot -25.2699 -19.4138
rtoes -12.4188
lfemur 0.473105 -15.6513 -17.6613
ltibia 33.4527
lfoot -27.426 6.16264
ltoes 0.498287
53
root 1.014 17.15 0.251864 753.716 -92.0854 -762.49
lowerback 14.8008 -2.49865 0.526158
upperback 0.527465 -3.62637 -3.72832
thorax -8.0339 -1.89545 -3.50257
lowerneck 43.2848 2.72749 4.37122
upperneck 15.3991 2.26609 -0.82245
head -0.647918 0.184585 -1.2089
rclavicle 2.96935e-014 -5.56597e-015
rhumerus -145.802 228.522 183.575
rradius 28.9061
rwrist 319.986
rhand -41.9203 0.177986
rfingers 7.12502
rthumb -14.8184 -29.2722
lclavicle 2.96935e-014 -5.56597e-015
lhumerus 52.5759 61.026 9.82558
lradius 32.0066
lwrist 28.3553
lhand -30.1271 5.76848
lfingers 7.12502
lthumb -3.44019 35.7205
rfemur 9.18703 15.5621 12.6927
rtibia 18.6815
rfoot -25.3086 -19.5656
rtoes -12.3697
lfemur 0.276034 -15.8066 -17.6395
ltibia 33.3426
lfoot -27.3232 6.09752
ltoes 0.645756
54
root 0.989494 17.1637 0.246724 756.803 -92.0568 -765.271
lowerback 14.4466 -2.52305 0.479217
upperback 0.525754 -3.66015 -3.73065
thorax -7.83622 -1.90915 -3.48229
lowerneck 42.7646 2.94974 4.05688
upperneck 15.755 2.37851 -0.628161
head -0.500081 0.215498 -1.10479
rclavicle -2.03506e-014 -1.35174e-014
rhumerus -151.116 229.244 186.504
rradius 29.9033
rwrist 317.65
rhand -45.4939 -0.63708
rfingers 7.12502
rthumb -18.2588 -29.8001
lclavicle -2.03506e-014 -1.35174e-014
lhumerus 52.8185 64.3106 11.5477
lradius 30.0419
lwrist 25.262
lhand -32.4804 6.31726
lfingers 7.12502
lthumb -5.7126 36.2203
rfemur 9.0417 15.7053 12.65
rtibia 18.6029
rfoot -25.4196 -19.7251
rtoes -12.2552
lfemur 0.0672276 -15.9626 -17.6305
ltibia 33.2186
lfoot -27.2448 6.10223
ltoes 0.67461
55
root 0.965798 17.1759 0.243056 760.632 -92.0048 -768.806
lowerback 14.0871 -2.56524 0.434168
upperback 0.547762 -3.71428 -3.71224
thorax -7.60996 -1.93209 -3.43751
lowerneck 42.2016 3.1698 3.69668
upperneck 16.0805 2.47927 -0.439105
head -0.360608 0.241345 -0.993527
rclavicle -3.13086e-015 -2.22639e-014
rhumerus -156.694 229.388 189.652
rradius 30.7111
rwrist 315.889
rhand -48.8388 -1.27894
rfingers 7.12502
rthumb -21.4742 -30.1087
lclavicle -3.13086e-015 -2.22639e-014
lhumerus 52.5469 67.562 12.8822
lradius 27.9895
lwrist 21.4006
lhand -34.7512 7.12501
lfingers 7.12502
lthumb -7.90467 36.9572
rfemur 8.90209 15.7661 12.5944
rtibia 18.5263
rfoot -25.5022 -19.8579
rtoes -12.2382
lfemur -0.138386 -16.15 -17.6192
ltibia 33.1032
lfoot -27.1595 6.06043
ltoes 0.818158
56
root 0.941842 17.1885 0.238687 764.429 -91.9751 -772.308
lowerback 13.7023 -2.58865 0.385481
upperback 0.589454 -3.74529 -3.71572
thorax -7.34817 -1.94445 -3.42085
lowerneck 41.61 3.32252 3.4674
upperneck 16.4118 2.5595 -0.313114
head -0.214528 0.269437 -0.92179
rclavicle 3.42034e-014 4.77083e-015
rhumerus -162.413 228.801 193.023
rradius 31.0162
rwrist 314.648
rhand -51.6207 -1.80093
rfingers 7.12502
rthumb -24.1439 -30.3015
lclavicle 3.42034e-014 4.77083e-015
lhumerus 49.901 70.4457 11.9649
lradius 26.1632
lwrist 17.6769
lhand -36.8638 8.43601
lfingers 7.12502
lthumb -9.94326 38.1812
rfemur 8.76437 15.8385 12.5328
rtibia 18.4487
rfoot -25.5525 -19.9926
rtoes -12.167
lfemur -0.335732 -16.3258 -17.6143
ltibia 32.9894
lfoot -27.1014 6.01298
ltoes 0.969072
57
root 0.919491 17.2001 0.23422 768.939 -91.9243 -776.552
lowerback 13.3485 -2.62942 0.313747
upperback 0.648279 -3.79894 -3.68013
thorax -7.0828 -1.96602 -3.34469
lowerneck 41.0543 3.47855 3.21304
upperneck 16.6723 2.64565 -0.229485
head -0.0938602 0.303183 -0.860742
rclavicle -5.34234e-016 3.26007e-014
rhumerus -167.739 227.335 196.377
rradius 30.4952
rwrist 313.746
rhand -53.6671 -2.02933
rfingers 7.12502
rthumb -26.1046 -30.2552
lclavicle -5.34234e-016 3.26007e-014
lhumerus 43.9288 72.854 7.79177
lradius 24.2827
lwrist 14.5477
lhand -38.6166 9.93617
lfingers 7.12502
lthumb -11.634 39.5932
rfemur 8.66603 15.9141 12.51
rtibia 18.377
rfoot -25.6366 -20.2084
rtoes -12.1715
lfemur -0.524296 -16.496 -17.5954
ltibia 32.8858
lfoot -26.9959 5.96225
ltoes 0.985943
58
root 0.897609 17.2112 0.230083 773.347 -91.8758 -780.677
lowerback 12.9557 -2.65045 0.23907
upperback 0.725589 -3.82384 -3.62913
thorax -6.77275 -1.97321 -3.25887
lowerneck 40.4502 3.56341 3.04226
upperneck 16.9258 2.6882 -0.195375
head 0.029754 0.325665 -0.82459
rclavicle -9.38636e-015 3.65764e-014
rhumerus -172.724 225.157 199.38
rradius 29.5276
rwrist 313.3
rhand -54.9172 -2.07314
rfingers 7.12502
rthumb -27.301 -30.1165
lclavicle -9.38636e-015 3.65764e-014
lhumerus 34.8786 74.6496 0.604294
lradius 22.2559
lwrist 12.2398
lhand -39.8147 11.1485
lfingers 7.12502
lthumb -12.7892 40.7368
rfemur 8.53701 15.9534 12.4803
rtibia 18.3058
rfoot -25.7098 -20.361
rtoes -12.017
lfemur -0.728157 -16.7393 -17.5743
ltibia 32.7875
lfoot -26.9304 5.931
ltoes 1.21493
